<svg width="551" height="269" viewBox="0 0 551 269" fill="none" xmlns="http://www.w3.org/2000/svg">
<path d="M294.2 91.8998C293 89.7998 291.4 88.0998 289.2 86.9998C287 85.8998 284.5 85.2998 281.5 85.2998C276.4 85.2998 272.3 86.9998 269.2 90.2998C266.1 93.5998 264.6 98.0998 264.6 103.7C264.6 109.7 266.2 114.3 269.4 117.7C272.6 121 277.1 122.7 282.7 122.7C286.6 122.7 289.8 121.7 292.5 119.8C295.2 117.8 297.1 115 298.4 111.3H278.4V99.6998H312.7V114.4C311.5 118.3 309.6 122 306.8 125.4C304 128.8 300.5 131.5 296.2 133.6C291.9 135.7 287 136.7 281.6 136.7C275.2 136.7 269.5 135.3 264.5 132.5C259.5 129.7 255.6 125.8 252.8 120.8C250 115.8 248.6 110.1 248.6 103.8C248.6 97.3998 250 91.6998 252.8 86.6998C255.6 81.6998 259.5 77.7998 264.5 74.9998C269.5 72.1998 275.2 70.7998 281.5 70.7998C289.2 70.7998 295.8 72.6998 301.1 76.3998C306.4 80.0998 309.9 85.2998 311.7 91.9998H294.2V91.8998Z" fill="white"/>
<path d="M322.6 76.8999C320.8 75.2999 320 73.2999 320 70.8999C320 68.3999 320.9 66.3999 322.6 64.7999C324.4 63.1999 326.6 62.3999 329.4 62.3999C332.1 62.3999 334.3 63.1999 336.1 64.7999C337.9 66.3999 338.7 68.4999 338.7 70.8999C338.7 73.2999 337.8 75.2999 336.1 76.8999C334.3 78.4999 332.1 79.2999 329.4 79.2999C326.7 79.2999 324.4 78.4999 322.6 76.8999ZM337.3 84.6999V136.1H321.5V84.6999H337.3Z" fill="white"/>
<path d="M371.3 86.5999C374.1 84.9999 377.1 84.2 380.5 84.2V100.9H376.2C372.3 100.9 369.3 101.7 367.4 103.4C365.4 105.1 364.5 108.1 364.5 112.3V136.2H348.7V84.7999H364.5V93.4C366.3 90.4 368.6 88.1999 371.3 86.5999Z" fill="white"/>
<path d="M389.3 76.8999C387.5 75.2999 386.7 73.2999 386.7 70.8999C386.7 68.3999 387.6 66.3999 389.3 64.7999C391.1 63.1999 393.3 62.3999 396.1 62.3999C398.8 62.3999 401 63.1999 402.8 64.7999C404.6 66.3999 405.4 68.4999 405.4 70.8999C405.4 73.2999 404.5 75.2999 402.8 76.8999C401 78.4999 398.8 79.2999 396.1 79.2999C393.3 79.2999 391 78.4999 389.3 76.8999ZM403.9 84.6999V136.1H388.1V84.6999H403.9Z" fill="white"/>
<path d="M461.1 89.9998C464.7 93.8998 466.5 99.2998 466.5 106.1V136.1H450.8V108.2C450.8 104.8 449.9 102.1 448.1 100.2C446.3 98.2999 443.9 97.2998 440.9 97.2998C437.9 97.2998 435.5 98.2999 433.7 100.2C431.9 102.1 431 104.8 431 108.2V136.1H415.2V84.6999H431V91.4998C432.6 89.1998 434.7 87.3999 437.5 86.0999C440.2 84.7999 443.2 84.0999 446.6 84.0999C452.7 84.0999 457.5 86.0998 461.1 89.9998Z" fill="white"/>
<path d="M323.5 148.5L307.1 207.8H303L286.8 154.4L270.3 207.8H266.3L250.2 148.5H254.3L268.5 202.5L284.8 148.5H289L305.1 202.8L319.4 148.5H323.5Z" fill="white"/>
<path d="M329.5 172.4C331.4 168.9 334 166.1 337.4 164.2C340.8 162.3 344.6 161.3 348.8 161.3C353.6 161.3 357.8 162.5 361.1 164.8C364.5 167.2 366.8 170.2 368.2 173.8V161.8H372V207.7H368.2V195.6C366.8 199.3 364.5 202.4 361.1 204.8C357.7 207.2 353.6 208.4 348.8 208.4C344.5 208.4 340.7 207.4 337.4 205.5C334 203.6 331.4 200.8 329.5 197.2C327.6 193.6 326.7 189.5 326.7 184.7C326.6 180.1 327.6 176 329.5 172.4ZM365.7 174.2C364 171.1 361.8 168.8 358.9 167.1C356 165.4 352.8 164.6 349.3 164.6C345.6 164.6 342.3 165.4 339.5 167C336.7 168.6 334.5 170.9 332.9 174C331.3 177 330.5 180.6 330.5 184.8C330.5 189 331.3 192.6 332.9 195.6C334.5 198.6 336.7 201 339.5 202.6C342.3 204.2 345.6 205.1 349.3 205.1C352.8 205.1 356.1 204.3 359 202.6C361.9 200.9 364.2 198.6 365.8 195.5C367.4 192.4 368.2 188.9 368.2 184.8C368.2 180.8 367.4 177.3 365.7 174.2Z" fill="white"/>
<path d="M389.6 145.3V207.8H385.8V145.3H389.6Z" fill="white"/>
<path d="M407.4 145.3V207.8H403.6V145.3H407.4Z" fill="white"/>
<path d="M462.5 186.3H422.9C423 190.4 423.9 193.9 425.6 196.7C427.3 199.5 429.5 201.6 432.3 203C435.1 204.4 438.1 205.1 441.3 205.1C445.8 205.1 449.6 204 452.6 201.8C455.6 199.6 457.6 196.6 458.3 192.7H462.3C461.4 197.4 459.1 201.2 455.4 204.1C451.7 207 447 208.4 441.3 208.4C437 208.4 433.2 207.4 429.8 205.5C426.4 203.6 423.8 200.8 421.9 197.3C420 193.7 419 189.5 419 184.8C419 180 419.9 175.8 421.8 172.3C423.7 168.8 426.3 166 429.7 164.1C433.1 162.2 436.9 161.3 441.3 161.3C445.7 161.3 449.5 162.2 452.7 164.1C455.9 166 458.4 168.5 460.1 171.6C461.8 174.7 462.6 178.1 462.6 181.7C462.6 183.8 462.6 185.3 462.5 186.3ZM456.7 172.9C455.1 170.1 452.9 168 450.2 166.6C447.4 165.2 444.5 164.5 441.2 164.5C437.9 164.5 435 165.2 432.3 166.6C429.6 168 427.3 170.1 425.6 172.9C423.9 175.7 423 179.2 422.9 183.2H458.9C459 179.2 458.3 175.7 456.7 172.9Z" fill="white"/>
<path d="M479.8 165.2V195.5C479.8 198.9 480.4 201.2 481.7 202.5C482.9 203.8 485.1 204.4 488.3 204.4H493.5V207.8H487.8C483.8 207.8 480.9 206.9 479 205C477.1 203.1 476.2 200 476.2 195.6V165.3H469.3V162H476.2V150.3H480V162H493.6V165.3H479.8V165.2Z" fill="white"/>
<path d="M144.1 93.9L137.6 68.4H129.6L135.4 91.4L123.9 88L116.1 57H108L115.2 85.5L80.1 75.3L102.3 126.2L79.4 119.6L91.9 148.2L57 211.8H159L171.8 157.8H202.1L217.7 117.7L144.1 93.9Z" fill="#4FE79C"/>
<path d="M135.7 126.7C139.621 126.7 142.8 123.521 142.8 119.6C142.8 115.679 139.621 112.5 135.7 112.5C131.779 112.5 128.6 115.679 128.6 119.6C128.6 123.521 131.779 126.7 135.7 126.7Z" fill="#2C2C34"/>
</svg>
